<?xml version="1.0" encoding="UTF-8"?>
<svg id="Layer_2" data-name="Layer 2" xmlns="http://www.w3.org/2000/svg" viewBox="0 0 313.34 167.63">
  <defs>
    <style>
      .cls-1 {
        fill: white;
        stroke-width: 0px;
      }
    </style>
  </defs>
  <g id="Layer_1-2" data-name="Layer 1">
    <g>
      <path class="cls-1"
        d="m287.04,38.75c-.38-.01-.76-.01-1.14-.01-19.81-.09-39.63-.18-59.44-.27-.06,0-.13-.01-.19-.01-7.57-.44-13.05,2.96-15.79,10.16-1.66,4.37-2.61,9.11-3.61,13.77-1.25,5.85-2.02,11.86-3.39,17.67-1.39,5.9-4.32,10.6-10.4,12.48,2.81.36,5.63.85,8.44,1.05,5.39.37,9.61-1.84,11.83-6.89,1.56-3.53,2.62-7.39,3.43-11.24,1.27-5.96,1.93-12.1,3.22-18.05,1.73-8,4.8-14.72,12.73-16.92h.02c18.65.08,37.29.17,55.93.25.18,0,.36-.02.55-.03-.33-1.4-.93-1.92-2.19-1.96Zm-52.27,1.08c-1.9-.02-2.22-.46-3.31-.66,18.55.08,37.1.16,55.65.24.48.01.9.12,1.26.67-17.92-.08-35.77-.16-53.6-.25Z" />
      <path class="cls-1"
        d="m224.89,33.8h-.01c-.64,0-1.25-.26-1.7-.71-.45-.46-.7-1.06-.7-1.71,0-.64.26-1.25.71-1.7.46-.45,1.05-.7,1.71-.7.64,0,1.25.26,1.7.71.45.46.7,1.06.7,1.71,0,.64-.26,1.25-.71,1.7-.46.45-1.06.7-1.7.7Zm0-3.82c-.78,0-1.41.63-1.41,1.4,0,.78.63,1.41,1.4,1.42h0c.78,0,1.41-.63,1.41-1.4,0-.78-.63-1.41-1.4-1.42h0Z" />
      <path class="cls-1"
        d="m174.94,92.26c1.09-.28,2.19-.6,3.25-1,8.49-3.11,13.17-9.55,15.28-18,.21-.84.4-1.68.58-2.53h-.03c.88-2.83,1.38-5.78,2.04-8.68.85-3.78,1.41-7.63,2.49-11.34,1.16-3.97,3.52-7.09,7.81-8.37-7.78-.65-15.55-1.34-23.27.62-1.09.28-2.18.6-3.25,1-8.49,3.11-13.17,9.55-15.28,18-.21.84-.4,1.68-.58,2.53,0,0-1.36,5.78-2.01,8.68-.85,3.78-1.41,7.63-2.49,11.34-1.16,3.97-3.52,7.09-7.81,8.37,7.78.65,15.55,1.34,23.27-.62Zm-1.21-19.63c.4-1.92.84-3.84,1.35-5.73.01-.07.04-.14.05-.2,0-.02,0-.04.02-.05.48-2.1.98-4.18,1.54-6.24,1.66-6.13,5.24-11.07,10.93-14.23.34-.18,1.36-.48,1.82-.43-3.52,5.14-3.93,11.11-5.14,16.85-.4,1.92-.84,3.84-1.35,5.73-.01.07-.04.14-.05.2,0,.02-.01.04-.02.05-.48,2.1-.98,4.18-1.54,6.24-1.66,6.13-5.24,11.07-10.93,14.23-.34.18-1.36.48-1.82.43,3.52-5.14,3.93-11.11,5.14-16.85Z" />
      <path class="cls-1"
        d="m103.57,92.76c6.01-1.9,9.01-6.35,10.52-11.88,1.49-5.45,2.39-11.06,3.78-16.54,1.1-4.36,2.15-8.79,3.89-12.9,2.87-6.77,8.33-10.08,15.74-9.86,2.93.09,5.86.46,8.89.96-9.76,1.51-13.42,8.56-15.52,16.83-1.41,5.57-2.22,11.3-3.62,16.88-.9,3.6-2.04,7.22-3.65,10.55-2.3,4.75-6.5,6.92-11.77,6.71-2.76-.11-5.5-.5-8.25-.76Z" />
      <path class="cls-1"
        d="m126.53,92.76c6.01-1.9,9.01-6.35,10.52-11.88,1.49-5.45,2.39-11.06,3.78-16.54,1.1-4.36,2.15-8.79,3.89-12.9,2.87-6.77,8.33-10.08,15.74-9.86,2.93.09,5.86.46,8.89.96-9.76,1.51-13.42,8.56-15.52,16.83-1.41,5.57-2.22,11.3-3.62,16.88-.9,3.6-2.04,7.22-3.65,10.55-2.3,4.75-6.5,6.92-11.77,6.71-2.76-.11-5.5-.5-8.25-.76Z" />
      <rect class="cls-1" x="194.46" y="3.13" width="1" height="56.03"
        transform="translate(162.93 225.96) rotate(-89.74)" />
      <path class="cls-1"
        d="m203.98,102.27c-9.77,1.51-13.42,8.56-15.52,16.83-1.41,5.58-2.22,11.3-3.62,16.88-.89,3.6-2.03,7.22-3.65,10.55-2.3,4.76-6.49,6.92-11.77,6.72-2.76-.11-5.5-.5-8.25-.76,6.01-1.91,9-6.36,10.52-11.88,1.49-5.45,2.39-11.06,3.77-16.54,1.1-4.36,2.15-8.79,3.89-12.91,1.19-2.82,2.84-5.03,4.88-6.63-.81-.24-1.62-.44-2.47-.51-1.37-.11-2.82.15-3.9.99-1.01.79-1.6,1.98-2.09,3.16-1.24,3.02-2.08,6.19-3.11,9.28-.91,2.73-1.54,5.62-3.28,7.97-1.45,1.98-3.62,3.33-6.05,3.73-1.3.21-2.65.15-3.94-.14-.69-.15-1.38-.37-2.04-.64-.35-.15-.69-.3-1.02-.48-.14-.07-.76-.52-.92-.52,1.89-.53,3.4-1.7,4.36-3.41,1.08-1.92,1.69-4.05,2.34-6.15.92-2.99,1.96-5.94,2.9-8.92.85-2.69,1.57-5.49,3.03-7.93.59-.99,1.32-1.91,2.24-2.61,1.43-1.08,3.21-1.61,5-1.75,1.65-.13,3.35.06,4.85.76,1.83.86,3.24,2.39,4.88,3.57.16.12,1.17.89,2.28,1.75,2.27-1,4.88-1.46,7.8-1.37,2.93.09,5.86.46,8.89.96Z" />
      <path class="cls-1"
        d="m166.86,102.37c-9.76,1.51-9.39,8.46-11.48,16.73-1.42,5.58-2.23,11.3-3.62,16.88-.9,3.6-2.03,7.22-3.65,10.55-2.3,4.76-6.5,6.92-11.77,6.72-2.76-.11-5.5-.5-8.25-.76,6-1.91,9-6.36,10.51-11.88,1.5-5.45,2.4-11.06,3.78-16.54,1.1-4.36,2.15-8.79,3.89-12.91.96-2.25,1.98-4.12,3.2-5.61-.5.22-.99.5-1.44.81-3.14,2.1-5.15,5.5-6.66,8.97-1.44,3.32-2.67,6.7-4.22,9.97-1.19,2.5-2.34,5.21-4.62,6.94-1.22.93-2.61,1.36-4.17,1.31-1.46-.03-2.65-.54-3.53-1.53-.06-.06-.13-.14-.19-.21.08-.05.17-.1.24-.15.77-.46,1.45-1.11,2.06-1.91,2.86-3.83,3.96-9.22,5.77-13.6,1.77-4.28,4.21-8.53,8.12-11.02,3.25-2.07,7.34-2.7,11.09-1.84,2.08-1.42,4.69-2.08,8.13-1.98,2.94.09,3.79.56,6.81,1.06Z" />
      <path class="cls-1"
        d="m183.67,152.72c6.01-1.9,9.01-6.35,10.52-11.88,1.49-5.45,2.39-11.06,3.78-16.54,1.1-4.36,2.15-8.79,3.89-12.9,2.87-6.77,8.33-10.08,15.74-9.86,2.93.09,5.86.46,8.89.96-9.76,1.51-13.42,8.56-15.52,16.83-1.41,5.57-2.22,11.3-3.62,16.88-.9,3.6-2.04,7.22-3.65,10.55-2.3,4.75-6.5,6.92-11.77,6.71-2.76-.11-5.5-.5-8.25-.76Z" />
      <path class="cls-1"
        d="m206.14,152.7c6.01-1.9,9.01-6.35,10.52-11.88,1.49-5.45,2.39-11.06,3.78-16.54,1.1-4.36,2.15-8.79,3.89-12.9,2.87-6.77,8.33-10.08,15.74-9.86,2.93.09,5.86.46,8.89.96-9.76,1.51-13.42,8.56-15.52,16.83-1.41,5.57-2.22,11.3-3.62,16.88-.9,3.6-2.04,7.22-3.65,10.55-2.3,4.75-6.5,6.92-11.77,6.71-2.76-.11-5.5-.5-8.25-.76Z" />
      <path class="cls-1"
        d="m131.25,115.46c-5.11.81-5.88,7.15-6.82,11.71-1.04,5-2.06,10.06-4.04,14.73-1.85,4.38-4.79,9.26-9.54,9.85-2.84.36-5.84.09-8.69.06h-.84c-2.03,1.19-4.46,1.71-7.18,1.6-2.13-.09-4.26-.34-6.39-.57-18.05,7.88-40.54,4.07-54.61-12.8-3.83-4.6-6.58-9.65-8.34-14.88.48.27.97.52,1.46.77,1.75,4.7,4.33,9.21,7.8,13.34,13.26,16.08,34.49,20.14,52.03,13.4t.06-.02c6.01-1.9,8.75-6.35,10.26-11.88,1.49-5.45,2.39-11.05,3.77-16.54,1.1-4.35,2.15-8.79,3.9-12.9,2.87-6.77,8.33-10.08,15.73-9.86,2.94.09,5.86.46,8.89.96-9.76,1.51-13.42,8.56-15.52,16.84-1.41,5.57-2.22,11.3-3.61,16.88-.9,3.6-2.04,7.22-3.65,10.55-.46.95-1,1.8-1.62,2.55.04-.03.07-.06.09-.08,1.72-1.66,2.99-3.86,4.04-6.08,2.15-4.57,3.26-9.61,4.31-14.6.88-4.27,1.36-11,5.73-12.76,2.33-.93,5.43-.37,7.83-.35,2.22,0,1.4.08,4.95.08Z" />
      <path class="cls-1"
        d="m55.38,65.67c-25.52,7.77-38.08,34.49-31.07,57.96.15.51.31,1.02.49,1.53.48.27.97.52,1.46.77-.18-.48-.35-.96-.51-1.45-7.76-23.27,4.43-50.48,29.74-58.45,12.17-4.01,25.77-2.28,36.8,3.98.01-.02.02-.05.02-.08-11.04-6.32-24.67-8.11-36.93-4.26Z" />
      <rect class="cls-1" x="94.47" y="156.1" width="9.56" height="9.56"
        transform="translate(142.83 -23.06) rotate(45)" />
      <rect class="cls-1" x="107.7" y="156.1" width="9.56" height="9.56"
        transform="translate(146.7 -32.42) rotate(45)" />
      <g>
        <rect class="cls-1" x="59.02" y="83.99" width="9.56" height="9.56"
          transform="translate(-44.08 71.11) rotate(-45)" />
        <rect class="cls-1" x="65.58" y="92.26" width="9.56" height="9.56"
          transform="translate(-48.01 78.17) rotate(-45)" />
        <rect class="cls-1" x="52.49" y="92.26" width="9.56" height="9.56"
          transform="translate(-51.84 68.91) rotate(-45)" />
      </g>
      <rect class="cls-1" x="131.98" y="26.43" width="9.56" height="9.56"
        transform="translate(62.12 -87.56) rotate(45)" />
      <polygon class="cls-1" points="171.77 31.2 165.01 37.96 158.26 31.2 165.01 24.45 171.6 31.03 171.77 31.2" />
      <path class="cls-1"
        d="m311.23,41.72c-.71.96-1.58.9-2.46.89-17.22-.08-34.43-.16-51.66-.23-2.67-.42-5.26-.72-7.86-.8-7.41-.22-12.87,3.08-15.74,9.85-1.74,4.12-2.79,8.55-3.89,12.91-1.38,5.48-2.28,11.09-3.77,16.54-1.52,5.52-4.52,9.97-10.52,11.88,2.75.26,5.49.65,8.25.76,5.27.2,9.47-1.96,11.77-6.72,1.62-3.33,2.75-6.95,3.65-10.55,1.39-5.58,2.21-11.3,3.62-16.88,1.54-6.08,3.92-11.5,8.96-14.54,20.33.09,40.65.18,60.98.27.22,0,.44-.02.78-.04-.74-1.18-1.41-2.23-2.11-3.34Zm-.06,2.52c-19.32-.09-38.64-.17-57.97-.27.65-.3,1.34-.56,2.08-.78,18.53.09,37.05.17,55.58.25.46,0,.83.07,1.02.8h-.71Z" />
      <g>
        <path class="cls-1"
          d="m138.76.58c-.69-.09-1.44-.18-2.13-.11-12.91,1.31-19.05,20.51-21.19,30.14-4.32,19.33-9.26,39-16.38,57.51-5.21,13.55-12.5,27.35-24.87,35.63-4.63,3.1-9.85,5.3-15.29,6.43-10.99,2.34-22.67.76-32.64-4.25-.18-.48-.35-.96-.51-1.45,3.08,1.74,6.38,3.14,9.84,4.12,31.16,8.8,47.06-27.78,54.41-51.16.78-2.47,1.54-4.94,2.29-7.43.01-.02.02-.05.02-.08,2.72-8.96,5.23-17.99,7.38-27.11,1.07-4.49,2.07-8.98,3.15-13.46,1.02-4.21,2.46-8.32,4.44-12.18C117.12-2,131.32-.56,138.76.58Z" />
        <path class="cls-1"
          d="m26.26,125.93c-.49-.25-.98-.5-1.46-.77-.18-.51-.34-1.02-.49-1.53.47.29.95.58,1.44.85.16.49.33.97.51,1.45Z" />
      </g>
      <path class="cls-1"
        d="m81.18,45.77c0,4.06-3.29,7.35-7.35,7.35s-7.35-3.29-7.35-7.35c0-2.31,1.07-4.38,2.74-5.71-1.21-.57-2.44-1.09-3.69-1.56-1.15-.43-2.32-.82-3.5-1.16-10.18-2.94-21.32-2.66-31.16,1.3C14.48,45.22,2.49,61.61,1.18,79.23c-1.3,17.74,8.21,35.22,23.13,44.4.15.51.31,1.02.49,1.53-3.89-2.11-7.49-4.76-10.66-7.92C2.4,105.54-2.64,87.54,1.34,71.45c3.98-16.08,16.85-29.67,32.7-34.49,9.09-2.77,18.97-2.59,28.05.18,1.21.36,2.4.77,3.57,1.23,1.24.48,2.47,1.01,3.67,1.6,1.24-.97,2.8-1.54,4.5-1.54,4.06,0,7.35,3.28,7.35,7.34Z" />
    </g>
  </g>
</svg>