<svg width="38" height="38" viewBox="0 0 38 38" fill="none" xmlns="http://www.w3.org/2000/svg">
    <circle cx="19" cy="19" r="18.25" stroke="white" stroke-width="1.5" />
    <path
        d="M18.999 0.75C19.724 0.75 20.4992 1.12948 21.2891 1.99805C22.0789 2.86682 22.8251 4.16551 23.4668 5.83398C24.7485 9.16648 25.5566 13.8213 25.5566 19C25.5566 24.1787 24.7485 28.8335 23.4668 32.166C22.8251 33.8345 22.0789 35.1332 21.2891 36.002C20.4992 36.8705 19.724 37.25 18.999 37.25C18.2741 37.25 17.4997 36.8705 16.71 36.002C15.92 35.1332 15.174 33.8346 14.5322 32.166C13.2505 28.8335 12.4414 24.1787 12.4414 19C12.4414 13.8213 13.2505 9.16648 14.5322 5.83398C15.174 4.1654 15.92 2.86677 16.71 1.99805C17.4997 1.12953 18.2741 0.750027 18.999 0.75Z"
        stroke="white" stroke-width="1.5" />
    <path d="M0.976562 19.4873H37.0279" stroke="white" stroke-width="1.5" stroke-linecap="round" />
</svg>